<?xml version="1.0" encoding="UTF-8"?>
<!DOCTYPE svg PUBLIC "-//W3C//DTD SVG 1.1//EN" "http://www.w3.org/Graphics/SVG/1.1/DTD/svg11.dtd">
<svg xmlns="http://www.w3.org/2000/svg" version="1.1" width="81px" height="78px" style="shape-rendering:geometricPrecision; text-rendering:geometricPrecision; image-rendering:optimizeQuality; fill-rule:evenodd; clip-rule:evenodd" xmlns:xlink="http://www.w3.org/1999/xlink">
<g><path style="opacity:0.986" fill="#000000" d="M -0.5,-0.5 C 23.5,-0.5 47.5,-0.5 71.5,-0.5C 71.6495,0.551975 71.4828,1.55198 71,2.5C 67.5945,5.78358 64.0945,8.95024 60.5,12C 45.1703,12.4999 29.837,12.6666 14.5,12.5C 14.6666,28.1702 14.4999,43.8369 14,59.5C 10.1667,63.6667 6.33333,67.8333 2.5,72C 1.55198,72.4828 0.551975,72.6495 -0.5,72.5C -0.5,48.1667 -0.5,23.8333 -0.5,-0.5 Z"/></g>
<g><path style="opacity:0.988" fill="#000000" d="M 77.5,-0.5 C 78.5,-0.5 79.5,-0.5 80.5,-0.5C 80.5,25.5 80.5,51.5 80.5,77.5C 55.1667,77.5 29.8333,77.5 4.5,77.5C 4.23798,76.0222 4.57131,74.6888 5.5,73.5C 9.0152,69.8176 12.6819,66.3176 16.5,63C 31.8297,62.5001 47.163,62.3334 62.5,62.5C 62.3334,46.8298 62.5001,31.1631 63,15.5C 68.0744,10.3238 72.9078,4.99048 77.5,-0.5 Z"/></g>
<g><path style="opacity:0.991" fill="#000000" d="M 27.5,25.5 C 35.5,25.5 43.5,25.5 51.5,25.5C 51.5,33.5 51.5,41.5 51.5,49.5C 43.5,49.5 35.5,49.5 27.5,49.5C 27.5,41.5 27.5,33.5 27.5,25.5 Z"/></g>
</svg>
