<?xml version="1.0" encoding="UTF-8"?>
<!DOCTYPE svg PUBLIC "-//W3C//DTD SVG 1.1//EN" "http://www.w3.org/Graphics/SVG/1.1/DTD/svg11.dtd">
<svg xmlns="http://www.w3.org/2000/svg" version="1.1" width="73px" height="78px" style="shape-rendering:geometricPrecision; text-rendering:geometricPrecision; image-rendering:optimizeQuality; fill-rule:evenodd; clip-rule:evenodd" xmlns:xlink="http://www.w3.org/1999/xlink">
<g><path style="opacity:0.977" fill="#000000" d="M 27.5,-0.5 C 33.1667,-0.5 38.8333,-0.5 44.5,-0.5C 45.1314,6.11276 45.7981,12.7794 46.5,19.5C 50.8797,17.0802 55.2131,14.5802 59.5,12C 63.9766,11.4257 68.31,11.9257 72.5,13.5C 72.5,18.8333 72.5,24.1667 72.5,29.5C 67.3475,32.5775 62.0141,35.4108 56.5,38C 61.7334,41.1047 67.0667,43.938 72.5,46.5C 72.5,51.8333 72.5,57.1667 72.5,62.5C 68.0244,64.3812 63.3577,64.8812 58.5,64C 54.3318,61.7503 50.3318,59.2503 46.5,56.5C 45.7999,63.5548 45.1332,70.5548 44.5,77.5C 38.8333,77.5 33.1667,77.5 27.5,77.5C 25.7573,70.7717 24.924,63.7717 25,56.5C 18.8716,62.3294 11.705,64.8294 3.5,64C 2.0993,63.5899 0.765972,63.0899 -0.5,62.5C -0.5,57.1667 -0.5,51.8333 -0.5,46.5C 4.93327,43.938 10.2666,41.1047 15.5,38C 9.98586,35.4108 4.65252,32.5775 -0.5,29.5C -0.5,24.1667 -0.5,18.8333 -0.5,13.5C 3.69003,11.9257 8.02336,11.4257 12.5,12C 16.7198,14.4247 20.8864,16.9247 25,19.5C 24.9292,12.5587 25.7625,5.89206 27.5,-0.5 Z"/></g>
</svg>
