<?xml version="1.0" encoding="UTF-8"?>
<!DOCTYPE svg PUBLIC "-//W3C//DTD SVG 1.1//EN" "http://www.w3.org/Graphics/SVG/1.1/DTD/svg11.dtd">
<svg xmlns="http://www.w3.org/2000/svg" version="1.1" width="79px" height="78px" style="shape-rendering:geometricPrecision; text-rendering:geometricPrecision; image-rendering:optimizeQuality; fill-rule:evenodd; clip-rule:evenodd" xmlns:xlink="http://www.w3.org/1999/xlink">
<g><path style="opacity:0.963" fill="#000000" d="M 12.5,-0.5 C 15.5,-0.5 18.5,-0.5 21.5,-0.5C 25.7615,6.27354 30.2615,12.9402 35,19.5C 36.9949,25.4704 38.9949,31.4704 41,37.5C 42.1781,50.8077 42.6781,64.141 42.5,77.5C 38.1667,77.5 33.8333,77.5 29.5,77.5C 22.1666,70.7331 14.6666,64.0665 7,57.5C 6.01063,46.9619 3.51063,36.9619 -0.5,27.5C -0.5,24.1667 -0.5,20.8333 -0.5,17.5C 2.22568,17.2639 4.55901,18.0972 6.5,20C 11,24.1667 15.5,28.3333 20,32.5C 19.9964,26.1321 19.3297,19.7987 18,13.5C 15.8419,8.86774 14.0085,4.20108 12.5,-0.5 Z"/></g>
<g><path style="opacity:0.935" fill="#000000" d="M 56.5,-0.5 C 59.5,-0.5 62.5,-0.5 65.5,-0.5C 60.6125,11.7811 57.4459,24.4478 56,37.5C 60.5,30.3333 66.3333,24.5 73.5,20C 75.1341,19.5065 76.8008,19.3398 78.5,19.5C 78.5,22.5 78.5,25.5 78.5,28.5C 70.9861,38.1279 66.3195,49.1279 64.5,61.5C 60.1667,65.8333 55.8333,70.1667 51.5,74.5C 49.2573,75.4742 46.924,75.8076 44.5,75.5C 44.8937,66.1356 46.8937,57.1356 50.5,48.5C 48.4999,48.6529 46.3332,48.3196 44,47.5C 42.5373,39.5431 41.8706,31.5431 42,23.5C 46.6797,15.3398 51.5131,7.33981 56.5,-0.5 Z"/></g>
</svg>
