<?xml version="1.0" encoding="UTF-8"?>
<!DOCTYPE svg PUBLIC "-//W3C//DTD SVG 1.1//EN" "http://www.w3.org/Graphics/SVG/1.1/DTD/svg11.dtd">
<svg xmlns="http://www.w3.org/2000/svg" version="1.1" width="84px" height="78px" style="shape-rendering:geometricPrecision; text-rendering:geometricPrecision; image-rendering:optimizeQuality; fill-rule:evenodd; clip-rule:evenodd" xmlns:xlink="http://www.w3.org/1999/xlink">
<g><path style="opacity:0.979" fill="#000000" d="M -0.5,-0.5 C 16.1667,-0.5 32.8333,-0.5 49.5,-0.5C 49.6495,0.551975 49.4828,1.55198 49,2.5C 46.4066,4.54857 43.9066,6.71524 41.5,9C 31.8391,9.4998 22.1724,9.66647 12.5,9.5C 12.6665,19.1724 12.4998,28.8391 12,38.5C 9.51837,41.9493 6.68504,45.116 3.5,48C 2.20677,48.49 0.873441,48.6567 -0.5,48.5C -0.5,32.1667 -0.5,15.8333 -0.5,-0.5 Z"/></g>
<g><path style="opacity:0.966" fill="#000000" d="M 60.5,-0.5 C 68.1667,-0.5 75.8333,-0.5 83.5,-0.5C 83.5,5.5 83.5,11.5 83.5,17.5C 63.1875,37.4788 42.8542,57.4788 22.5,77.5C 14.8333,77.5 7.16667,77.5 -0.5,77.5C -0.5,71.5 -0.5,65.5 -0.5,59.5C 19.8333,39.5 40.1667,19.5 60.5,-0.5 Z"/></g>
<g><path style="opacity:0.979" fill="#000000" d="M 83.5,28.5 C 83.5,44.8333 83.5,61.1667 83.5,77.5C 67.5,77.5 51.5,77.5 35.5,77.5C 36.4853,73.6702 38.8187,70.8369 42.5,69C 51.8274,68.5002 61.1607,68.3335 70.5,68.5C 70.3335,59.1607 70.5002,49.8274 71,40.5C 74.1667,36.6667 77.3333,32.8333 80.5,29C 81.448,28.5172 82.448,28.3505 83.5,28.5 Z"/></g>
</svg>
