<?xml version="1.0" encoding="UTF-8"?>
<!DOCTYPE svg PUBLIC "-//W3C//DTD SVG 1.1//EN" "http://www.w3.org/Graphics/SVG/1.1/DTD/svg11.dtd">
<svg xmlns="http://www.w3.org/2000/svg" version="1.1" width="96px" height="78px" style="shape-rendering:geometricPrecision; text-rendering:geometricPrecision; image-rendering:optimizeQuality; fill-rule:evenodd; clip-rule:evenodd" xmlns:xlink="http://www.w3.org/1999/xlink">
<g><path style="opacity:0.949" fill="#000000" d="M 32.5,-0.5 C 42.5,-0.5 52.5,-0.5 62.5,-0.5C 64.6158,2.98388 64.9491,6.65055 63.5,10.5C 59.3749,14.1235 55.3749,17.9568 51.5,22C 49.3046,23.373 46.9712,23.7063 44.5,23C 40.2919,18.6237 35.9585,14.457 31.5,10.5C 30.0509,6.65055 30.3842,2.98388 32.5,-0.5 Z"/></g>
<g><path style="opacity:0.96" fill="#000000" d="M -0.5,13.5 C 9.77972,14.956 20.1131,16.1227 30.5,17C 34.2028,19.3575 36.2028,22.6908 36.5,27C 35.433,34.5701 34.0997,42.0701 32.5,49.5C 28.8687,49.9677 25.5354,49.301 22.5,47.5C 20.9918,45.4925 19.1584,43.8259 17,42.5C 16.0643,39.208 16.5643,36.208 18.5,33.5C 13.8333,32.8333 9.16667,32.1667 4.5,31.5C 3.54687,28.57 1.8802,26.2367 -0.5,24.5C -0.5,20.8333 -0.5,17.1667 -0.5,13.5 Z"/></g>
<g><path style="opacity:0.96" fill="#000000" d="M 95.5,13.5 C 95.5,17.1667 95.5,20.8333 95.5,24.5C 93.1198,26.2367 91.4531,28.57 90.5,31.5C 85.8333,32.1667 81.1667,32.8333 76.5,33.5C 78.4357,36.208 78.9357,39.208 78,42.5C 75.1793,44.3224 72.6793,46.4891 70.5,49C 67.854,49.4974 65.1873,49.6641 62.5,49.5C 60.9541,42.2262 59.6207,34.8929 58.5,27.5C 58.5598,22.9294 60.5598,19.4294 64.5,17C 74.8869,16.1227 85.2203,14.956 95.5,13.5 Z"/></g>
<g><path style="opacity:0.983" fill="#000000" d="M 61.5,77.5 C 52.1667,77.5 42.8333,77.5 33.5,77.5C 35.2067,67.8591 37.0401,58.1924 39,48.5C 39.4997,40.5069 39.6664,32.5069 39.5,24.5C 44.8333,25.8333 50.1667,25.8333 55.5,24.5C 55.3336,32.5069 55.5003,40.5069 56,48.5C 57.9599,58.1924 59.7933,67.8591 61.5,77.5 Z"/></g>
</svg>
