<?xml version="1.0" encoding="UTF-8"?>
<!DOCTYPE svg PUBLIC "-//W3C//DTD SVG 1.1//EN" "http://www.w3.org/Graphics/SVG/1.1/DTD/svg11.dtd">
<svg xmlns="http://www.w3.org/2000/svg" version="1.1" width="83px" height="78px" style="shape-rendering:geometricPrecision; text-rendering:geometricPrecision; image-rendering:optimizeQuality; fill-rule:evenodd; clip-rule:evenodd" xmlns:xlink="http://www.w3.org/1999/xlink">
<g><path style="opacity:0.986" fill="#000000" d="M -0.5,-0.5 C 25.1667,-0.5 50.8333,-0.5 76.5,-0.5C 73.0086,4.66902 68.6753,9.33569 63.5,13.5C 48.1811,14.4994 32.8478,14.8327 17.5,14.5C 17.6666,29.5037 17.4999,44.5037 17,59.5C 12.1597,66.185 6.32634,71.5184 -0.5,75.5C -0.5,50.1667 -0.5,24.8333 -0.5,-0.5 Z"/></g>
<g><path style="opacity:0.986" fill="#000000" d="M 82.5,7.5 C 82.5,30.8333 82.5,54.1667 82.5,77.5C 59.1667,77.5 35.8333,77.5 12.5,77.5C 12.3505,76.448 12.5172,75.448 13,74.5C 16.1667,71.6667 19.3333,68.8333 22.5,66C 37.8297,65.5001 53.163,65.3334 68.5,65.5C 68.3334,50.163 68.5001,34.8297 69,19.5C 72.8689,15.9662 76.3689,12.1328 79.5,8C 80.448,7.51722 81.448,7.35055 82.5,7.5 Z"/></g>
<g><path style="opacity:0.995" fill="#000000" d="M 26.5,23.5 C 36.8333,23.5 47.1667,23.5 57.5,23.5C 57.5,33.8333 57.5,44.1667 57.5,54.5C 47.1667,54.5 36.8333,54.5 26.5,54.5C 26.5,44.1667 26.5,33.8333 26.5,23.5 Z"/></g>
</svg>
