<svg width="432" height="36" viewBox="0 0 432 36" fill="none" xmlns="http://www.w3.org/2000/svg">
<path d="M1.08779 23.5V12.3021H8.3984V13.9498H3.1354V17.0212H7.9185V18.6209H3.1354V21.8523H8.3984V23.5H1.08779ZM9.53619 23.5L12.4156 19.5328L9.53619 15.5655H11.7278L13.7434 18.381L15.743 15.5655H17.9506L15.0551 19.5328L17.9506 23.5H15.743L13.7434 20.6845L11.7278 23.5H9.53619ZM22.7206 23.692C21.91 23.692 21.1955 23.516 20.577 23.1641C19.9584 22.8121 19.4678 22.3216 19.1052 21.6923C18.7533 21.0631 18.5773 20.3433 18.5773 19.5328C18.5773 18.7222 18.7533 18.0024 19.1052 17.3732C19.4678 16.7439 19.9584 16.2534 20.577 15.9014C21.1955 15.5495 21.91 15.3735 22.7206 15.3735C23.7337 15.3735 24.5869 15.6402 25.2801 16.1734C25.9733 16.696 26.4159 17.4212 26.6078 18.349H24.4482C24.3416 17.9651 24.1283 17.6664 23.8084 17.4531C23.4991 17.2292 23.1311 17.1172 22.7046 17.1172C22.1393 17.1172 21.6594 17.3305 21.2648 17.7571C20.8702 18.1837 20.6729 18.7756 20.6729 19.5328C20.6729 20.2899 20.8702 20.8818 21.2648 21.3084C21.6594 21.735 22.1393 21.9483 22.7046 21.9483C23.1311 21.9483 23.4991 21.8416 23.8084 21.6284C24.1283 21.4151 24.3416 21.1111 24.4482 20.7165H26.6078C26.4159 21.6124 25.9733 22.3322 25.2801 22.8761C24.5869 23.42 23.7337 23.692 22.7206 23.692ZM32.2805 23.692C31.4806 23.692 30.7714 23.5213 30.1529 23.1801C29.5343 22.8388 29.0491 22.3589 28.6972 21.7403C28.3452 21.1218 28.1693 20.4073 28.1693 19.5967C28.1693 18.7756 28.3399 18.045 28.6812 17.4052C29.0331 16.7653 29.513 16.2694 30.1209 15.9174C30.7395 15.5548 31.4646 15.3735 32.2965 15.3735C33.075 15.3735 33.7629 15.5442 34.3601 15.8854C34.9573 16.2267 35.4212 16.696 35.7518 17.2932C36.0931 17.8797 36.2637 18.5356 36.2637 19.2608C36.2637 19.3781 36.2584 19.5008 36.2477 19.6287C36.2477 19.7567 36.2424 19.89 36.2317 20.0287H30.2009C30.2435 20.6472 30.4568 21.1324 30.8408 21.4844C31.2354 21.8363 31.7099 22.0123 32.2645 22.0123C32.6804 22.0123 33.027 21.9216 33.3043 21.7403C33.5922 21.5484 33.8055 21.3031 33.9442 21.0045H36.0238C35.8745 21.5057 35.6239 21.9643 35.2719 22.3802C34.9307 22.7855 34.5041 23.1054 33.9922 23.34C33.4909 23.5747 32.9204 23.692 32.2805 23.692ZM32.2965 17.0372C31.7953 17.0372 31.3527 17.1812 30.9687 17.4691C30.5848 17.7464 30.3395 18.173 30.2329 18.7489H34.1841C34.1521 18.2263 33.9602 17.8104 33.6082 17.5011C33.2563 17.1919 32.8191 17.0372 32.2965 17.0372ZM37.9859 23.5V11.9822H40.0335V23.5H37.9859ZM42.1257 23.5V11.9822H44.1734V23.5H42.1257ZM50.1209 23.692C49.321 23.692 48.6118 23.5213 47.9933 23.1801C47.3747 22.8388 46.8895 22.3589 46.5375 21.7403C46.1856 21.1218 46.0096 20.4073 46.0096 19.5967C46.0096 18.7756 46.1803 18.045 46.5215 17.4052C46.8735 16.7653 47.3534 16.2694 47.9613 15.9174C48.5798 15.5548 49.305 15.3735 50.1369 15.3735C50.9154 15.3735 51.6032 15.5442 52.2005 15.8854C52.7977 16.2267 53.2616 16.696 53.5922 17.2932C53.9335 17.8797 54.1041 18.5356 54.1041 19.2608C54.1041 19.3781 54.0988 19.5008 54.0881 19.6287C54.0881 19.7567 54.0828 19.89 54.0721 20.0287H48.0412C48.0839 20.6472 48.2972 21.1324 48.6811 21.4844C49.0757 21.8363 49.5503 22.0123 50.1049 22.0123C50.5208 22.0123 50.8674 21.9216 51.1447 21.7403C51.4326 21.5484 51.6459 21.3031 51.7845 21.0045H53.8641C53.7148 21.5057 53.4642 21.9643 53.1123 22.3802C52.771 22.7855 52.3444 23.1054 51.8325 23.34C51.3313 23.5747 50.7607 23.692 50.1209 23.692ZM50.1369 17.0372C49.6356 17.0372 49.193 17.1812 48.8091 17.4691C48.4252 17.7464 48.1799 18.173 48.0732 18.7489H52.0245C51.9925 18.2263 51.8005 17.8104 51.4486 17.5011C51.0967 17.1919 50.6594 17.0372 50.1369 17.0372ZM55.8263 23.5V15.5655H57.6339L57.7939 16.9093C58.0392 16.44 58.3911 16.0667 58.8497 15.7895C59.3189 15.5122 59.8682 15.3735 60.4974 15.3735C61.4785 15.3735 62.241 15.6828 62.7849 16.3014C63.3288 16.9199 63.6008 17.8264 63.6008 19.0209V23.5H61.5532V19.2128C61.5532 18.5303 61.4145 18.0077 61.1373 17.6451C60.86 17.2825 60.4281 17.1012 59.8415 17.1012C59.2656 17.1012 58.791 17.3038 58.4178 17.7091C58.0552 18.1144 57.8739 18.6796 57.8739 19.4048V23.5H55.8263ZM69.0941 23.5C68.2623 23.5 67.5957 23.2974 67.0945 22.8921C66.5933 22.4869 66.3426 21.767 66.3426 20.7325V17.2772H64.9829V15.5655H66.3426L66.5826 13.4379H68.3903V15.5655H70.5338V17.2772H68.3903V20.7485C68.3903 21.1324 68.4702 21.3991 68.6302 21.5484C68.8008 21.687 69.0888 21.7563 69.494 21.7563H70.4859V23.5H69.0941ZM81.2707 23.5V21.4204H75.7517V19.7887L80.9987 12.3021H83.3183V19.6447H84.79V21.4204H83.3183V23.5H81.2707ZM77.9433 19.6447H81.3987V14.5577L77.9433 19.6447ZM87.2315 23.612C86.8583 23.612 86.549 23.4947 86.3037 23.26C86.0691 23.0254 85.9518 22.7428 85.9518 22.4122C85.9518 22.0709 86.0691 21.783 86.3037 21.5484C86.549 21.3137 86.8583 21.1964 87.2315 21.1964C87.6048 21.1964 87.9088 21.3137 88.1434 21.5484C88.3887 21.783 88.5113 22.0709 88.5113 22.4122C88.5113 22.7428 88.3887 23.0254 88.1434 23.26C87.9088 23.4947 87.6048 23.612 87.2315 23.612ZM93.5817 23.692C92.8032 23.692 92.1473 23.5427 91.6141 23.244C91.0809 22.9348 90.6649 22.5348 90.3663 22.0443C90.0677 21.5537 89.8918 21.0258 89.8384 20.4606H91.7421C91.8274 20.9512 92.03 21.3297 92.35 21.5964C92.6806 21.863 93.0965 21.9963 93.5977 21.9963C94.3122 21.9963 94.8881 21.671 95.3254 21.0205C95.7626 20.3593 95.9973 19.3568 96.0293 18.013C95.7733 18.4503 95.384 18.8129 94.8615 19.1008C94.3496 19.3888 93.7843 19.5328 93.1658 19.5328C92.5473 19.5328 91.966 19.3834 91.4221 19.0848C90.8782 18.7862 90.4357 18.365 90.0944 17.8211C89.7531 17.2772 89.5825 16.6373 89.5825 15.9014C89.5825 15.2296 89.7478 14.6057 90.0784 14.0298C90.409 13.4539 90.8676 12.99 91.4541 12.6381C92.0407 12.2861 92.7286 12.1102 93.5177 12.1102C94.3602 12.1102 95.0694 12.2648 95.6453 12.5741C96.2212 12.8833 96.6798 13.2993 97.0211 13.8218C97.373 14.3444 97.6236 14.9256 97.7729 15.5655C97.9329 16.2054 98.0129 16.8613 98.0129 17.5331C98.0129 18.7809 97.8369 19.8687 97.485 20.7965C97.1437 21.7137 96.6371 22.4282 95.9653 22.9401C95.3041 23.4413 94.5095 23.692 93.5817 23.692ZM93.6457 17.8051C94.0403 17.8051 94.3976 17.7198 94.7175 17.5491C95.0374 17.3678 95.2881 17.1332 95.4694 16.8453C95.6507 16.5467 95.7413 16.2161 95.7413 15.8535C95.7413 15.2776 95.5387 14.803 95.1334 14.4297C94.7388 14.0565 94.2376 13.8698 93.6297 13.8698C93.0325 13.8698 92.5366 14.0565 92.142 14.4297C91.7474 14.7923 91.5501 15.2562 91.5501 15.8215C91.5501 16.4187 91.7474 16.8986 92.142 17.2612C92.5366 17.6238 93.0378 17.8051 93.6457 17.8051ZM107.762 23.692C107.016 23.692 106.344 23.5213 105.746 23.1801C105.149 22.8388 104.675 22.3589 104.323 21.7403C103.981 21.1111 103.811 20.3753 103.811 19.5328C103.811 18.6902 103.987 17.9597 104.339 17.3412C104.691 16.712 105.165 16.2267 105.762 15.8854C106.37 15.5442 107.047 15.3735 107.794 15.3735C108.541 15.3735 109.212 15.5442 109.81 15.8854C110.407 16.2267 110.876 16.712 111.217 17.3412C111.569 17.9597 111.745 18.6902 111.745 19.5328C111.745 20.3753 111.569 21.1111 111.217 21.7403C110.865 22.3589 110.386 22.8388 109.778 23.1801C109.18 23.5213 108.509 23.692 107.762 23.692ZM107.762 22.5402C108.221 22.5402 108.647 22.4282 109.042 22.2042C109.436 21.9803 109.756 21.6444 110.002 21.1964C110.247 20.7485 110.37 20.194 110.37 19.5328C110.37 18.8715 110.247 18.317 110.002 17.8691C109.767 17.4212 109.452 17.0852 109.058 16.8613C108.663 16.6373 108.242 16.5253 107.794 16.5253C107.335 16.5253 106.909 16.6373 106.514 16.8613C106.12 17.0852 105.8 17.4212 105.554 17.8691C105.309 18.317 105.187 18.8715 105.187 19.5328C105.187 20.194 105.309 20.7485 105.554 21.1964C105.8 21.6444 106.114 21.9803 106.498 22.2042C106.893 22.4282 107.314 22.5402 107.762 22.5402ZM116.509 23.692C115.571 23.692 114.824 23.4094 114.27 22.8441C113.715 22.2682 113.438 21.3884 113.438 20.2046V15.5655H114.781V20.0607C114.781 21.7137 115.459 22.5402 116.813 22.5402C117.506 22.5402 118.077 22.2949 118.525 21.8043C118.983 21.3031 119.213 20.5939 119.213 19.6767V15.5655H120.556V23.5H119.341L119.245 22.0763C118.999 22.5775 118.631 22.9721 118.141 23.26C117.661 23.548 117.117 23.692 116.509 23.692ZM125.904 23.5C125.178 23.5 124.608 23.324 124.192 22.9721C123.776 22.6202 123.568 21.9856 123.568 21.0685V16.7013H122.192V15.5655H123.568L123.744 13.6619H124.912V15.5655H127.247V16.7013H124.912V21.0685C124.912 21.5697 125.013 21.911 125.216 22.0923C125.418 22.2629 125.776 22.3482 126.288 22.3482H127.119V23.5H125.904ZM136.803 23.692C136.057 23.692 135.385 23.5213 134.788 23.1801C134.191 22.8388 133.716 22.3589 133.364 21.7403C133.023 21.1111 132.852 20.3753 132.852 19.5328C132.852 18.6902 133.028 17.9597 133.38 17.3412C133.732 16.712 134.207 16.2267 134.804 15.8854C135.412 15.5442 136.089 15.3735 136.835 15.3735C137.582 15.3735 138.254 15.5442 138.851 15.8854C139.448 16.2267 139.917 16.712 140.259 17.3412C140.611 17.9597 140.787 18.6902 140.787 19.5328C140.787 20.3753 140.611 21.1111 140.259 21.7403C139.907 22.3589 139.427 22.8388 138.819 23.1801C138.222 23.5213 137.55 23.692 136.803 23.692ZM136.803 22.5402C137.262 22.5402 137.689 22.4282 138.083 22.2042C138.478 21.9803 138.798 21.6444 139.043 21.1964C139.288 20.7485 139.411 20.194 139.411 19.5328C139.411 18.8715 139.288 18.317 139.043 17.8691C138.808 17.4212 138.494 17.0852 138.099 16.8613C137.705 16.6373 137.283 16.5253 136.835 16.5253C136.377 16.5253 135.95 16.6373 135.556 16.8613C135.161 17.0852 134.841 17.4212 134.596 17.8691C134.351 18.317 134.228 18.8715 134.228 19.5328C134.228 20.194 134.351 20.7485 134.596 21.1964C134.841 21.6444 135.156 21.9803 135.54 22.2042C135.934 22.4282 136.355 22.5402 136.803 22.5402ZM143.087 23.5V16.7013H141.887V15.5655H143.087V14.1898C143.087 13.4219 143.279 12.862 143.663 12.5101C144.047 12.1582 144.607 11.9822 145.343 11.9822H146.142V13.134H145.55C145.145 13.134 144.857 13.2193 144.687 13.3899C144.516 13.5499 144.431 13.8272 144.431 14.2218V15.5655H146.382V16.7013H144.431V23.5H143.087ZM156.103 23.692C155.335 23.692 154.669 23.5533 154.103 23.276C153.538 22.9988 153.085 22.6202 152.744 22.1403C152.413 21.6497 152.21 21.0951 152.136 20.4766H153.447C153.575 21.0951 153.874 21.5964 154.343 21.9803C154.813 22.3536 155.404 22.5402 156.119 22.5402C156.652 22.5402 157.111 22.4175 157.495 22.1723C157.879 21.9163 158.172 21.575 158.375 21.1484C158.588 20.7219 158.694 20.2473 158.694 19.7247C158.694 18.8929 158.46 18.221 157.991 17.7091C157.521 17.1972 156.913 16.9412 156.167 16.9412C155.548 16.9412 155.02 17.0799 154.583 17.3572C154.146 17.6344 153.826 17.997 153.623 18.445H152.344L153.303 12.3021H159.174V13.4699H154.343L153.687 16.8773C153.943 16.568 154.295 16.312 154.743 16.1094C155.202 15.9068 155.724 15.8055 156.311 15.8055C157.047 15.8055 157.687 15.9761 158.231 16.3174C158.785 16.6586 159.217 17.1225 159.526 17.7091C159.836 18.2957 159.99 18.9622 159.99 19.7087C159.99 20.4233 159.836 21.0845 159.526 21.6923C159.228 22.3002 158.785 22.7855 158.199 23.1481C157.623 23.5107 156.924 23.692 156.103 23.692Z" fill="white"/>
<rect width="26.6616" height="26.6616" transform="translate(178.33 4.66919)" fill="#00B679"/>
<path d="M191.661 22.9005L195.716 21.8147L197.41 27.3315L191.661 22.9005ZM200.992 15.7698H193.855L191.661 8.6684L189.467 15.7698H182.329L188.106 20.1715L185.912 27.2728L191.689 22.8711L195.244 20.1715L200.992 15.7698Z" fill="white"/>
<rect width="26.6616" height="26.6616" transform="translate(207.658 4.66919)" fill="#00B679"/>
<path d="M220.989 22.9005L225.044 21.8147L226.738 27.3315L220.989 22.9005ZM230.32 15.7698H223.183L220.989 8.6684L218.795 15.7698H211.657L217.434 20.1715L215.24 27.2728L221.017 22.8711L224.571 20.1715L230.32 15.7698Z" fill="white"/>
<rect width="26.6616" height="26.6616" transform="translate(236.986 4.66919)" fill="#00B679"/>
<path d="M250.316 22.9005L254.371 21.8147L256.065 27.3315L250.316 22.9005ZM259.648 15.7698H252.51L250.316 8.6684L248.122 15.7698H240.985L246.762 20.1715L244.568 27.2728L250.344 22.8711L253.899 20.1715L259.648 15.7698Z" fill="white"/>
<rect width="26.6616" height="26.6616" transform="translate(266.313 4.66919)" fill="#00B679"/>
<path d="M279.644 22.9005L283.699 21.8147L285.393 27.3315L279.644 22.9005ZM288.976 15.7698H281.838L279.644 8.6684L277.45 15.7698H270.313L276.089 20.1715L273.895 27.2728L279.672 22.8711L283.227 20.1715L288.976 15.7698Z" fill="white"/>
<rect width="26.6616" height="26.6616" transform="translate(295.641 4.66919)" fill="#00B679"/>
<path d="M308.972 22.9005L313.027 21.8147L314.721 27.3315L308.972 22.9005ZM318.304 15.7698H311.166L308.972 8.6684L306.778 15.7698H299.64L305.417 20.1715L303.223 27.2728L309 22.8711L312.555 20.1715L318.304 15.7698Z" fill="white"/>
<path d="M348.964 22.638L353.019 21.6104L354.713 26.8316L348.964 22.638ZM358.296 15.8893H351.158L348.964 9.16833L346.77 15.8893H339.633L345.409 20.0552L343.215 26.7761L348.992 22.6102L352.547 20.0552L358.296 15.8893Z" fill="#00B679"/>
<path d="M369.151 12.1272V23.5H367.666V12.1272H369.151ZM372.806 12.1272V13.3613H364.019V12.1272H372.806ZM375.126 16.3764V23.5H373.681V15.0485H375.087L375.126 16.3764ZM377.766 15.0016L377.758 16.3451C377.639 16.3191 377.524 16.3035 377.415 16.2982C377.31 16.2878 377.191 16.2826 377.055 16.2826C376.722 16.2826 376.428 16.3347 376.173 16.4388C375.918 16.543 375.701 16.6888 375.524 16.8763C375.347 17.0637 375.207 17.2876 375.103 17.548C375.004 17.8032 374.939 18.0844 374.907 18.3916L374.501 18.6259C374.501 18.1156 374.551 17.6365 374.65 17.1887C374.754 16.7409 374.912 16.3451 375.126 16.0014C375.339 15.6525 375.61 15.3818 375.938 15.1891C376.272 14.9912 376.667 14.8923 377.126 14.8923C377.23 14.8923 377.35 14.9053 377.485 14.9313C377.62 14.9521 377.714 14.9756 377.766 15.0016ZM384.273 21.5472V15.0485H385.726V23.5H384.343L384.273 21.5472ZM384.546 19.7663L385.148 19.7507C385.148 20.3131 385.088 20.8338 384.968 21.3129C384.853 21.7868 384.666 22.1982 384.405 22.5471C384.145 22.8959 383.804 23.1693 383.382 23.3672C382.96 23.5599 382.448 23.6562 381.843 23.6562C381.432 23.6562 381.055 23.5963 380.711 23.4766C380.372 23.3568 380.081 23.1719 379.836 22.922C379.591 22.672 379.401 22.3466 379.266 21.9456C379.136 21.5446 379.071 21.063 379.071 20.5006V15.0485H380.516V20.5162C380.516 20.8963 380.557 21.2114 380.641 21.4613C380.729 21.7061 380.846 21.9013 380.992 22.0472C381.143 22.1877 381.31 22.2867 381.492 22.344C381.679 22.4013 381.872 22.4299 382.07 22.4299C382.684 22.4299 383.171 22.3127 383.531 22.0784C383.89 21.8389 384.148 21.5186 384.304 21.1176C384.465 20.7115 384.546 20.261 384.546 19.7663ZM392.849 21.2582C392.849 21.0499 392.802 20.8573 392.709 20.6802C392.62 20.498 392.435 20.3339 392.154 20.1881C391.878 20.0371 391.461 19.9069 390.904 19.7976C390.436 19.6986 390.011 19.5815 389.631 19.4461C389.256 19.3107 388.936 19.1467 388.67 18.954C388.41 18.7613 388.209 18.5348 388.069 18.2744C387.928 18.0141 387.858 17.7094 387.858 17.3605C387.858 17.0273 387.931 16.7122 388.077 16.4154C388.228 16.1186 388.439 15.8556 388.709 15.6265C388.985 15.3974 389.316 15.2177 389.701 15.0875C390.087 14.9574 390.516 14.8923 390.99 14.8923C391.667 14.8923 392.245 15.012 392.724 15.2516C393.203 15.4911 393.57 15.8114 393.826 16.2123C394.081 16.6081 394.208 17.0481 394.208 17.5324H392.763C392.763 17.2981 392.693 17.0715 392.552 16.8528C392.417 16.6289 392.216 16.444 391.951 16.2982C391.691 16.1524 391.37 16.0795 390.99 16.0795C390.589 16.0795 390.264 16.142 390.014 16.267C389.769 16.3868 389.589 16.5404 389.475 16.7278C389.365 16.9153 389.311 17.1132 389.311 17.3215C389.311 17.4777 389.337 17.6183 389.389 17.7433C389.446 17.8631 389.545 17.975 389.686 18.0792C389.826 18.1781 390.024 18.2718 390.279 18.3604C390.535 18.4489 390.86 18.5374 391.256 18.6259C391.948 18.7821 392.519 18.9696 392.966 19.1883C393.414 19.407 393.747 19.6752 393.966 19.9929C394.185 20.3105 394.294 20.6958 394.294 21.1489C394.294 21.5186 394.216 21.8571 394.06 22.1643C393.909 22.4715 393.688 22.7371 393.396 22.961C393.11 23.1797 392.766 23.3516 392.365 23.4766C391.969 23.5963 391.524 23.6562 391.029 23.6562C390.285 23.6562 389.654 23.5234 389.139 23.2579C388.623 22.9923 388.233 22.6486 387.967 22.2268C387.702 21.805 387.569 21.3598 387.569 20.8911H389.022C389.043 21.2869 389.157 21.6019 389.365 21.8363C389.574 22.0654 389.829 22.2294 390.131 22.3283C390.433 22.4221 390.732 22.4689 391.029 22.4689C391.425 22.4689 391.756 22.4169 392.021 22.3127C392.292 22.2086 392.498 22.0654 392.638 21.8831C392.779 21.7009 392.849 21.4926 392.849 21.2582ZM399.731 15.0485V16.1576H395.161V15.0485H399.731ZM396.708 12.9942H398.153V21.4066C398.153 21.6931 398.197 21.9092 398.286 22.055C398.374 22.2008 398.489 22.2971 398.629 22.344C398.77 22.3908 398.921 22.4143 399.082 22.4143C399.202 22.4143 399.327 22.4039 399.457 22.383C399.593 22.357 399.694 22.3362 399.762 22.3205L399.77 23.5C399.655 23.5365 399.504 23.5703 399.317 23.6015C399.134 23.638 398.913 23.6562 398.653 23.6562C398.299 23.6562 397.973 23.5859 397.676 23.4453C397.38 23.3047 397.143 23.0704 396.966 22.7423C396.794 22.4091 396.708 21.9612 396.708 21.3988V12.9942ZM402.871 16.6732V26.7494H401.418V15.0485H402.746L402.871 16.6732ZM408.565 19.2039V19.368C408.565 19.9824 408.492 20.5526 408.346 21.0786C408.2 21.5993 407.987 22.0524 407.706 22.4377C407.43 22.823 407.089 23.1225 406.682 23.336C406.276 23.5495 405.81 23.6562 405.284 23.6562C404.748 23.6562 404.274 23.5677 403.863 23.3906C403.451 23.2136 403.102 22.9558 402.816 22.6174C402.53 22.2789 402.301 21.8727 402.129 21.3988C401.962 20.925 401.847 20.3912 401.785 19.7976V18.9227C401.847 18.2979 401.965 17.7381 402.136 17.2434C402.308 16.7487 402.535 16.3269 402.816 15.978C403.102 15.6239 403.449 15.3557 403.855 15.1735C404.261 14.986 404.73 14.8923 405.261 14.8923C405.792 14.8923 406.263 14.9964 406.675 15.2047C407.086 15.4078 407.432 15.6994 407.714 16.0795C407.995 16.4597 408.206 16.9153 408.346 17.4465C408.492 17.9724 408.565 18.5582 408.565 19.2039ZM407.112 19.368V19.2039C407.112 18.7821 407.068 18.3864 406.979 18.0167C406.891 17.6417 406.753 17.3137 406.565 17.0325C406.383 16.7461 406.149 16.5222 405.862 16.3607C405.576 16.1941 405.235 16.1108 404.839 16.1108C404.475 16.1108 404.157 16.1733 403.886 16.2982C403.621 16.4232 403.394 16.5925 403.207 16.806C403.019 17.0143 402.866 17.2538 402.746 17.5246C402.631 17.7901 402.545 18.0661 402.488 18.3525V20.3756C402.592 20.7401 402.738 21.0838 402.925 21.4066C403.113 21.7243 403.363 21.9821 403.675 22.1799C403.988 22.3726 404.381 22.4689 404.855 22.4689C405.245 22.4689 405.581 22.3882 405.862 22.2268C406.149 22.0602 406.383 21.8336 406.565 21.5472C406.753 21.2608 406.891 20.9328 406.979 20.5631C407.068 20.1881 407.112 19.7898 407.112 19.368ZM411.978 15.0485V23.5H410.526V15.0485H411.978ZM410.416 12.8067C410.416 12.5724 410.486 12.3745 410.627 12.2131C410.773 12.0517 410.986 11.9709 411.268 11.9709C411.544 11.9709 411.754 12.0517 411.9 12.2131C412.051 12.3745 412.127 12.5724 412.127 12.8067C412.127 13.0306 412.051 13.2233 411.9 13.3847C411.754 13.541 411.544 13.6191 411.268 13.6191C410.986 13.6191 410.773 13.541 410.627 13.3847C410.486 13.2233 410.416 13.0306 410.416 12.8067ZM415.868 11.5023V23.5H414.415V11.5023H415.868ZM417.805 19.368V19.1883C417.805 18.5791 417.894 18.0141 418.071 17.4933C418.248 16.9674 418.503 16.5117 418.836 16.1264C419.17 15.7359 419.573 15.4338 420.047 15.2203C420.521 15.0016 421.052 14.8923 421.641 14.8923C422.234 14.8923 422.768 15.0016 423.242 15.2203C423.721 15.4338 424.127 15.7359 424.46 16.1264C424.799 16.5117 425.057 16.9674 425.234 17.4933C425.411 18.0141 425.499 18.5791 425.499 19.1883V19.368C425.499 19.9772 425.411 20.5422 425.234 21.063C425.057 21.5837 424.799 22.0393 424.46 22.4299C424.127 22.8152 423.724 23.1173 423.25 23.336C422.781 23.5495 422.25 23.6562 421.656 23.6562C421.063 23.6562 420.529 23.5495 420.055 23.336C419.581 23.1173 419.175 22.8152 418.836 22.4299C418.503 22.0393 418.248 21.5837 418.071 21.063C417.894 20.5422 417.805 19.9772 417.805 19.368ZM419.25 19.1883V19.368C419.25 19.7898 419.3 20.1881 419.399 20.5631C419.498 20.9328 419.646 21.2608 419.844 21.5472C420.047 21.8336 420.3 22.0602 420.602 22.2268C420.904 22.3882 421.255 22.4689 421.656 22.4689C422.052 22.4689 422.398 22.3882 422.695 22.2268C422.997 22.0602 423.247 21.8336 423.445 21.5472C423.643 21.2608 423.791 20.9328 423.89 20.5631C423.994 20.1881 424.046 19.7898 424.046 19.368V19.1883C424.046 18.7717 423.994 18.3786 423.89 18.0089C423.791 17.6339 423.64 17.3033 423.437 17.0169C423.239 16.7252 422.989 16.4961 422.687 16.3295C422.39 16.1629 422.042 16.0795 421.641 16.0795C421.245 16.0795 420.896 16.1629 420.594 16.3295C420.297 16.4961 420.047 16.7252 419.844 17.0169C419.646 17.3033 419.498 17.6339 419.399 18.0089C419.3 18.3786 419.25 18.7717 419.25 19.1883ZM430.85 15.0485V16.1576H426.28V15.0485H430.85ZM427.827 12.9942H429.272V21.4066C429.272 21.6931 429.316 21.9092 429.405 22.055C429.493 22.2008 429.608 22.2971 429.748 22.344C429.889 22.3908 430.04 22.4143 430.201 22.4143C430.321 22.4143 430.446 22.4039 430.576 22.383C430.712 22.357 430.813 22.3362 430.881 22.3205L430.889 23.5C430.774 23.5365 430.623 23.5703 430.436 23.6015C430.254 23.638 430.032 23.6562 429.772 23.6562C429.418 23.6562 429.092 23.5859 428.795 23.4453C428.499 23.3047 428.262 23.0704 428.085 22.7423C427.913 22.4091 427.827 21.9612 427.827 21.3988V12.9942Z" fill="white"/>
</svg>
